<?xml version="1.0" encoding="utf-8"?><svg version="1.1" id="Layer_1" xmlns="http://www.w3.org/2000/svg" xmlns:xlink="http://www.w3.org/1999/xlink" x="0px" y="0px" viewBox="0 0 99.22 122.88" style="enable-background:new 0 0 99.22 122.88" xml:space="preserve"><style type="text/css">.st0{fill-rule:evenodd;clip-rule:evenodd;}</style><g><path class="st0" d="M47,3.73L49.65,0l2.44,3.44c1.23,1.74,1.26,1.35,1.26,3.46v7.09c8.25,7.84,15.91,15.39,20.1,24.04 c4.85,10,2.98,13.41-0.13,22.88c-5.24,15.95-13.44,24.12-9.56,41.37l29.45,5.41c8.04,1.39,8.61,14.49-2.05,15.18H9.34 c-3.02,0-5.78,0.15-7.88-2.67c-2.9-3.91-1.35-10.86,3.57-12.26l30.76-5.17c2.12-16.44,0.47-13.14-5.02-28.38 c-1.86-5.16-3.75-9.79-5.18-14.78c-1.74-6.07-3.54-12.46-1.39-18.77c1.2-3.52,5.1-7.51,7.52-10.44c4.62-5.6,9.29-11.12,14.08-16.46 V7.96C45.8,5.4,45.52,5.8,47,3.73L47,3.73z M52.25,40.96c0.1-0.1,0.19-0.21,0.25-0.33c1.86-3.55-4.97-4.24-5.78-2.04 c-0.26,0.69-0.36,1.84,0.27,2.37h0c-0.86,0-1.23,0.23-1.99,0.66c-8.36,4.68-6.99,18.67,0.5,23.24V68h-0.17 c-2.93,0-4.5,0.15-6.9-1.97c-2.33-2.06-4.21-7.44-4.97-10.42c-1.9-7.46-1.05-11.12,2.52-18C39.2,31.41,44,25.67,49.69,20.34 c8.46,8.29,15.81,16.89,16.75,26.26c0.06,2.42,0,4.8-0.44,7.07c-1.96,10.25-3.62,13.74-12.07,14.26v-2.93h0.06 c1.69-1.14,3.05-2.78,4.09-4.92c2.99-6.15,3.01-14.44-3.17-18.06C53.86,41.39,53.37,41,52.25,40.96L52.25,40.96z"/></g></svg>